<svg xmlns="http://www.w3.org/2000/svg" x="0px" y="0px"
width="50" height="50"
viewBox="0 0 172 172"
style=" fill:#000000;"><g fill="none" fill-rule="nonzero" stroke="none" stroke-width="1" stroke-linecap="butt" stroke-linejoin="miter" stroke-miterlimit="10" stroke-dasharray="" stroke-dashoffset="0" font-family="none" font-weight="none" font-size="none" text-anchor="none" style="mix-blend-mode: normal"><path d="M0,172v-172h172v172z" fill="none"></path><g fill="#ffbb33"><path d="M30.96,13.76c-9.45834,0 -17.2,7.74166 -17.2,17.2v110.08c0,9.45834 7.74166,17.2 17.2,17.2h110.08c9.45834,0 17.2,-7.74166 17.2,-17.2v-110.08c0,-9.45834 -7.74166,-17.2 -17.2,-17.2zM30.96,20.64h110.08c5.73958,0 10.32,4.58042 10.32,10.32v110.08c0,5.73958 -4.58042,10.32 -10.32,10.32h-110.08c-5.73958,0 -10.32,-4.58042 -10.32,-10.32v-110.08c0,-5.73958 4.58042,-10.32 10.32,-10.32zM57.47219,52.60781l-4.86437,4.86437l28.52781,28.52781l-28.52781,28.52781l4.86437,4.86437l28.52781,-28.52781l28.52781,28.52781l4.86437,-4.86437l-28.52781,-28.52781l28.52781,-28.52781l-4.86437,-4.86437l-28.52781,28.52781z"></path></g></g></svg>